<?xml version="1.0" encoding="iso-8859-1"?>
<!-- Generator: Adobe Illustrator 19.0.0, SVG Export Plug-In . SVG Version: 6.00 Build 0)  -->
<svg version="1.1" id="Layer_1" xmlns="http://www.w3.org/2000/svg" xmlns:xlink="http://www.w3.org/1999/xlink" x="0px" y="0px"
	 viewBox="0 0 511.999 511.999" style="enable-background:new 0 0 511.999 511.999;" xml:space="preserve">
<g>
	<g>
		<path d="M495.307,381.298c-114.438,0-191.534-40.036-211.521-109.842c-14.42-50.363,6.178-99.952,33.53-117.013
			c9.403-5.865,15.116-6.181,26.167-6.676c11.62,0.977,23.612,6.895,35.565,17.684c23.37,21.094,21.555,68.579,20.355,100.001
			c-0.709,18.558-1.136,29.76,2.688,37.974c4.352,9.347,14.095,13.87,24.817,11.526c16.494-3.607,34.388-23.38,45.635-40.682
			c16.413-25.249,25.53-54.403,25.672-82.092c0.253-49.125-19.27-90.643-56.456-120.072c-33.283-26.34-79.406-41.097-129.866-41.553
			c-75.342-0.688-150.936,29.523-207.33,82.917C57.878,157.674,1.854,239.256,0.074,376.899
			c-0.442,34.159,1.304,64.259,0.025,86.923c-0.541,9.575,7.089,17.635,16.667,17.635c45.343,0,432.143,0,478.541,0
			c9.219,0,16.693-7.474,16.693-16.693v-66.773C512,388.771,504.526,381.298,495.307,381.298z M33.941,448.07
			c0.161-20.896-0.82-44.738-0.484-70.738C36.375,151.785,194.862,62.775,311.588,63.941
			c76.599,0.692,153.688,40.559,153.238,128.066c-0.181,35.454-18.502,64.534-32.244,79.544c0.059-1.638,0.12-3.264,0.18-4.824
			c1.438-37.633,3.61-94.507-31.347-126.059c-19.903-17.964-41.532-26.896-62.703-26.52c-42.838-0.798-84.421,9.68-120.629,30.512
			C144.699,186.884,99.782,266.662,99.995,349.464c0.088,34.017,7.893,67.617,22.754,98.606H33.941z M160.522,448.072
			c-46.355-79.502-31.447-174.296,28.317-238.241c-12.083,23.789-19.214,50.632-20.631,78.64
			c-2.277,45.006,10.352,88.689,35.56,123.002c10.433,14.202,22.717,26.44,36.615,36.599H160.522z M478.614,448.072h-149.97
			c-92.615-13.429-130.584-88.867-127.09-157.914c2.14-42.309,20.449-85.448,56.418-113.03
			c-14.106,32.67-15.843,70.123-6.282,103.521c11.047,38.582,36.493,71.112,73.586,94.077c39.377,24.377,90.901,37.707,153.339,39.7
			V448.072z"/>
	</g>
</g>
<g>
</g>
<g>
</g>
<g>
</g>
<g>
</g>
<g>
</g>
<g>
</g>
<g>
</g>
<g>
</g>
<g>
</g>
<g>
</g>
<g>
</g>
<g>
</g>
<g>
</g>
<g>
</g>
<g>
</g>
</svg>
